<?xml version="1.0" encoding="utf-8"?>
<!-- Generator: Adobe Illustrator 16.0.0, SVG Export Plug-In . SVG Version: 6.00 Build 0)  -->
<!DOCTYPE svg PUBLIC "-//W3C//DTD SVG 1.1//EN" "http://www.w3.org/Graphics/SVG/1.1/DTD/svg11.dtd">
<svg version="1.1" id="Calque_1" xmlns="http://www.w3.org/2000/svg" xmlns:xlink="http://www.w3.org/1999/xlink" x="0px" y="0px"
	 width="100.216px" height="140.028px" viewBox="0 0 100.216 140.028" style="enable-background:new 0 0 100.216 140.028;"
	 xml:space="preserve">
<g>
	<path style="fill:#E65100;" d="M21.542,135.294c0.478,1.016,2.342,4.733,2.342,4.733s3.602-2.119,4.549-2.683
		c0,0,10.596-6.331,23.632-16.583l-41.534-12.352C15.996,124.165,21.542,135.294,21.542,135.294z"/>
	<path style="fill:#E65100;" d="M69.319,3.753l-5.115,17.2c13.964,6.693,21.417,22.766,16.866,38.071
		C76.517,74.33,61.493,83.717,46.14,81.693l-8.198,27.566l20.696,6.154c14.453-12.176,30.151-28.323,37.353-45.574
		c0.813-1.855,1.555-3.761,2.146-5.749C105.493,39.328,92.722,13.359,69.319,3.753z"/>
	<path style="fill:#E65100;" d="M19.567,40.734c4.662-15.676,20.317-25.136,36.053-22.492l5.096-17.136
		C35.504-4.293,9.983,10.528,2.509,35.661c-0.602,2.022-1.025,4.041-1.359,6.067c-3.346,18.375,1.127,40.479,6.727,58.591
		l21.438,6.375l8.155-27.422C22.847,72.889,14.905,56.41,19.567,40.734z"/>
</g>
</svg>
